<svg width="54" height="60" viewBox="0 0 54 60" fill="none" xmlns="http://www.w3.org/2000/svg">
<path d="M52.781 52.9688H49.2654V38.4092C49.2654 37.7621 48.7407 37.2374 48.0936 37.2374H44.5781V34.6918C45.942 34.2081 46.9218 32.9055 46.9218 31.3778C46.9218 29.4393 45.3447 27.8622 43.4062 27.8622H42.693C44.2001 23.6377 42.5929 19.0301 38.3556 15.9324L29.6169 9.5436C30.4608 9.04755 31.1619 8.31208 31.62 7.39286C31.8132 7.00486 31.7768 6.54197 31.5248 6.18924C31.2729 5.8365 30.8466 5.65182 30.4172 5.70854C29.7162 5.80205 28.8144 5.28631 28.1231 4.39581C27.3931 3.45526 27.0797 2.30917 27.3612 1.60898C27.5204 1.21265 27.4515 0.761133 27.1812 0.430314C26.9108 0.0996122 26.4822 -0.0578872 26.0618 0.0193391C23.6154 0.469337 21.8398 2.60343 21.8398 5.09389C21.8398 6.98599 22.8642 8.64255 24.3869 9.54079L23.2124 10.3994C22.69 10.7813 22.5761 11.5146 22.958 12.0371C23.3399 12.5595 24.0732 12.6737 24.5957 12.2914L26.9999 10.5338L36.9723 17.8246C40.6404 20.5062 41.8434 24.3859 40.1521 27.8623H13.8476C12.1564 24.3859 13.3594 20.5063 17.0276 17.8245C17.5501 17.4426 17.664 16.7094 17.282 16.1869C16.9001 15.6643 16.167 15.5504 15.6444 15.9324C11.407 19.0305 9.79965 23.6379 11.3069 27.8623H10.5937C8.6552 27.8623 7.0781 29.4394 7.0781 31.3779C7.0781 32.9055 8.0579 34.2082 9.42184 34.6919V37.2375H5.90623C5.259 37.2375 4.73436 37.7622 4.73436 38.4093V52.9689H1.21875C0.571521 52.9689 0.046875 53.4937 0.046875 54.1408V58.8282C0.046875 59.4754 0.571521 60.0001 1.21875 60.0001H52.781C53.4282 60.0001 53.9529 59.4754 53.9529 58.8282V54.1408C53.9529 53.4935 53.4282 52.9688 52.781 52.9688ZM25.0001 3.10898C25.1735 4.02971 25.6053 4.97412 26.2719 5.83287C26.874 6.60853 27.5804 7.20138 28.328 7.58025C27.9285 7.79329 27.4756 7.90978 27.0012 7.91001C27.0004 7.91001 26.9994 7.91001 26.9986 7.91001C25.4463 7.90931 24.1837 6.64615 24.1837 5.09377C24.1837 4.3269 24.4919 3.6219 25.0001 3.10898ZM10.5937 30.2059H13.1431C13.1443 30.2059 13.1455 30.2061 13.1466 30.2061C13.1478 30.2061 13.149 30.2059 13.1501 30.2059H40.8496C40.8508 30.2059 40.852 30.2061 40.8532 30.2061C40.8543 30.2061 40.8555 30.2059 40.8568 30.2059H43.4062C44.0524 30.2059 44.5781 30.7316 44.5781 31.3778C44.5781 32.0239 44.0524 32.5496 43.4062 32.5496H10.5938C9.94766 32.5496 9.42196 32.0239 9.42196 31.3778C9.42196 30.7316 9.94754 30.2059 10.5937 30.2059ZM7.0781 39.5811H34.0311C34.6782 39.5811 35.203 39.0563 35.203 38.4092C35.203 37.7621 34.6782 37.2374 34.0311 37.2374H11.7656V34.8934H42.2342V38.4092C42.2342 39.0563 42.759 39.5811 43.4061 39.5811H46.9216V52.9688H43.992V48.2813C43.992 45.6966 41.8892 43.5938 39.3045 43.5938C36.7199 43.5938 34.6171 45.6966 34.6171 48.2813V52.9688H31.6874V48.2813C31.6874 45.6966 29.5846 43.5938 26.9999 43.5938C24.4152 43.5938 22.3124 45.6966 22.3124 48.2813V52.9688H19.3827V48.2813C19.3827 45.6966 17.2799 43.5938 14.6953 43.5938C12.1106 43.5938 10.0078 45.6966 10.0078 48.2813V52.9688H7.0781V39.5811ZM36.9609 52.9688V48.2813C36.9609 46.989 38.0123 45.9376 39.3047 45.9376C40.597 45.9376 41.6484 46.989 41.6484 48.2813V52.9688H36.9609ZM24.6562 52.9688V48.2813C24.6562 46.989 25.7076 45.9376 26.9999 45.9376C28.2922 45.9376 29.3436 46.989 29.3436 48.2813V52.9688H24.6562ZM12.3515 52.9688V48.2813C12.3515 46.989 13.4029 45.9376 14.6953 45.9376C15.9876 45.9376 17.039 46.989 17.039 48.2813V52.9688H12.3515ZM51.6092 57.6563H2.39062V55.3125H51.6092V57.6563Z" fill="#F57F26"/>
</svg>
