<svg width="43" height="53" viewBox="0 0 43 53" fill="none" xmlns="http://www.w3.org/2000/svg">
<path d="M39.5209 7.54286C41.1793 7.12248 42.4101 5.61747 42.4101 3.83007C42.4101 1.71815 40.6919 0 38.58 0H4.41991C2.3081 0 0.589844 1.71815 0.589844 3.83007C0.589844 5.61747 1.82064 7.12248 3.47917 7.54286C1.71319 9.04601 0.589844 11.2827 0.589844 13.7781C0.589844 17.5043 3.62129 20.5357 7.34743 20.5357C8.68962 20.5357 9.92279 20.0617 10.8896 19.273V45.3398H10.4756C8.44925 45.3398 6.80077 46.9882 6.80077 49.0146V51.9647C6.80077 52.5365 7.26421 52.9999 7.83592 52.9999H17.6008C18.1726 52.9999 18.636 52.5365 18.636 51.9647C18.636 51.393 18.1726 50.9296 17.6008 50.9296H8.87108V49.0146C8.87108 48.1299 9.59082 47.4101 10.4756 47.4101H32.5244C33.4091 47.4101 34.1288 48.1298 34.1288 49.0146V50.9296H25.468C24.8963 50.9296 24.4329 51.393 24.4329 51.9647C24.4329 52.5365 24.8963 52.9999 25.468 52.9999H35.164C35.7357 52.9999 36.1992 52.5365 36.1992 51.9647V49.0146C36.1992 46.9882 34.5507 45.3398 32.5244 45.3398H32.1059V19.2696C33.0734 20.0604 34.3083 20.5357 35.6524 20.5357C39.3785 20.5357 42.41 17.5043 42.41 13.7781C42.4101 11.2827 41.2868 9.04601 39.5209 7.54286ZM2.66015 3.83007C2.66015 2.85972 3.44956 2.07031 4.41991 2.07031H38.58C39.5504 2.07031 40.3398 2.85972 40.3398 3.83007C40.3398 4.80042 39.5504 5.58983 38.58 5.58983H4.41991C3.44956 5.58983 2.66015 4.80042 2.66015 3.83007ZM30.0357 45.3398H25.724V26.5131C25.724 25.9414 25.2606 25.4779 24.6889 25.4779C24.1171 25.4779 23.6537 25.9414 23.6537 26.5131V45.3398H12.9599V15.9577H17.2717V38.6113C17.2717 39.183 17.7351 39.6464 18.3068 39.6464C18.8785 39.6464 19.342 39.183 19.342 38.6113V15.9577H30.0357V45.3398ZM35.6525 18.4654C33.6989 18.4654 32.1097 16.876 32.1097 14.9226C32.1097 13.4739 33.2882 12.2954 34.7369 12.2954C35.7817 12.2954 36.6316 13.1453 36.6316 14.1901C36.6316 14.9117 36.0445 15.4988 35.3229 15.4988C34.7512 15.4988 34.2877 15.9623 34.2877 16.534C34.2877 17.1057 34.7512 17.5692 35.3229 17.5692C37.1862 17.5692 38.7019 16.0533 38.7019 14.1901C38.7019 12.0038 36.9232 10.225 34.7369 10.225C32.4998 10.225 30.6242 11.7973 30.1541 13.8947C30.1152 13.8902 30.0758 13.8874 30.0357 13.8874H12.9521C12.9161 13.8874 12.8806 13.8893 12.8457 13.8929C12.3748 11.7965 10.4997 10.2252 8.26324 10.2252C6.07689 10.2252 4.29818 12.0039 4.29818 14.1902C4.29818 16.0535 5.81406 17.5693 7.67723 17.5693C8.24895 17.5693 8.71239 17.1058 8.71239 16.5341C8.71239 15.9624 8.24895 15.499 7.67723 15.499C6.95563 15.499 6.36849 14.9118 6.36849 14.1902C6.36849 13.1454 7.21845 12.2955 8.26324 12.2955C9.70904 12.2955 10.8855 13.4693 10.8902 14.914C10.8902 14.9169 10.8898 14.9197 10.8898 14.9227V14.9486C10.8758 16.8901 9.29249 18.4655 7.34764 18.4655C4.76286 18.4654 2.66015 16.3627 2.66015 13.7781C2.66015 10.4046 5.40466 7.66014 8.77812 7.66014H34.2219C37.5955 7.66014 40.3398 10.4046 40.3398 13.7781C40.3398 16.3627 38.2372 18.4654 35.6525 18.4654Z" fill="#F57F26"/>
</svg>
