<svg width="206" height="222" viewBox="0 0 206 222" fill="none" xmlns="http://www.w3.org/2000/svg">
<circle cx="1" cy="1" r="1" fill="#F57F26"/>
<circle cx="13" cy="1" r="1" fill="#F57F26"/>
<circle cx="25" cy="1" r="1" fill="#F57F26"/>
<circle cx="37" cy="1" r="1" fill="#F57F26"/>
<circle cx="49" cy="1" r="1" fill="#F57F26"/>
<circle cx="61" cy="1" r="1" fill="#F57F26"/>
<circle cx="73" cy="1" r="1" fill="#F57F26"/>
<circle cx="85" cy="1" r="1" fill="#F57F26"/>
<circle cx="97" cy="1" r="1" fill="#F57F26"/>
<circle cx="109" cy="1" r="1" fill="#F57F26"/>
<circle cx="121" cy="1" r="1" fill="#F57F26"/>
<circle cx="133" cy="1" r="1" fill="#F57F26"/>
<circle cx="145" cy="1" r="1" fill="#F57F26"/>
<circle cx="157" cy="1" r="1" fill="#F57F26"/>
<circle cx="169" cy="1" r="1" fill="#F57F26"/>
<circle cx="181" cy="1" r="1" fill="#F57F26"/>
<circle cx="193" cy="1" r="1" fill="#F57F26"/>
<circle cx="205" cy="1" r="1" fill="#F57F26"/>
<circle cx="1" cy="11" r="1" fill="#F57F26"/>
<circle cx="13" cy="11" r="1" fill="#F57F26"/>
<circle cx="25" cy="11" r="1" fill="#F57F26"/>
<circle cx="37" cy="11" r="1" fill="#F57F26"/>
<circle cx="49" cy="11" r="1" fill="#F57F26"/>
<circle cx="61" cy="11" r="1" fill="#F57F26"/>
<circle cx="73" cy="11" r="1" fill="#F57F26"/>
<circle cx="85" cy="11" r="1" fill="#F57F26"/>
<circle cx="97" cy="11" r="1" fill="#F57F26"/>
<circle cx="109" cy="11" r="1" fill="#F57F26"/>
<circle cx="121" cy="11" r="1" fill="#F57F26"/>
<circle cx="133" cy="11" r="1" fill="#F57F26"/>
<circle cx="145" cy="11" r="1" fill="#F57F26"/>
<circle cx="157" cy="11" r="1" fill="#F57F26"/>
<circle cx="169" cy="11" r="1" fill="#F57F26"/>
<circle cx="181" cy="11" r="1" fill="#F57F26"/>
<circle cx="193" cy="11" r="1" fill="#F57F26"/>
<circle cx="205" cy="11" r="1" fill="#F57F26"/>
<circle cx="1" cy="21" r="1" fill="#F57F26"/>
<circle cx="13" cy="21" r="1" fill="#F57F26"/>
<circle cx="25" cy="21" r="1" fill="#F57F26"/>
<circle cx="37" cy="21" r="1" fill="#F57F26"/>
<circle cx="49" cy="21" r="1" fill="#F57F26"/>
<circle cx="61" cy="21" r="1" fill="#F57F26"/>
<circle cx="73" cy="21" r="1" fill="#F57F26"/>
<circle cx="85" cy="21" r="1" fill="#F57F26"/>
<circle cx="97" cy="21" r="1" fill="#F57F26"/>
<circle cx="109" cy="21" r="1" fill="#F57F26"/>
<circle cx="121" cy="21" r="1" fill="#F57F26"/>
<circle cx="133" cy="21" r="1" fill="#F57F26"/>
<circle cx="145" cy="21" r="1" fill="#F57F26"/>
<circle cx="157" cy="21" r="1" fill="#F57F26"/>
<circle cx="169" cy="21" r="1" fill="#F57F26"/>
<circle cx="181" cy="21" r="1" fill="#F57F26"/>
<circle cx="193" cy="21" r="1" fill="#F57F26"/>
<circle cx="205" cy="21" r="1" fill="#F57F26"/>
<circle cx="1" cy="31" r="1" fill="#F57F26"/>
<circle cx="13" cy="31" r="1" fill="#F57F26"/>
<circle cx="25" cy="31" r="1" fill="#F57F26"/>
<circle cx="37" cy="31" r="1" fill="#F57F26"/>
<circle cx="49" cy="31" r="1" fill="#F57F26"/>
<circle cx="61" cy="31" r="1" fill="#F57F26"/>
<circle cx="73" cy="31" r="1" fill="#F57F26"/>
<circle cx="85" cy="31" r="1" fill="#F57F26"/>
<circle cx="97" cy="31" r="1" fill="#F57F26"/>
<circle cx="109" cy="31" r="1" fill="#F57F26"/>
<circle cx="121" cy="31" r="1" fill="#F57F26"/>
<circle cx="133" cy="31" r="1" fill="#F57F26"/>
<circle cx="145" cy="31" r="1" fill="#F57F26"/>
<circle cx="157" cy="31" r="1" fill="#F57F26"/>
<circle cx="169" cy="31" r="1" fill="#F57F26"/>
<circle cx="181" cy="31" r="1" fill="#F57F26"/>
<circle cx="193" cy="31" r="1" fill="#F57F26"/>
<circle cx="205" cy="31" r="1" fill="#F57F26"/>
<circle cx="1" cy="41" r="1" fill="#F57F26"/>
<circle cx="13" cy="41" r="1" fill="#F57F26"/>
<circle cx="25" cy="41" r="1" fill="#F57F26"/>
<circle cx="37" cy="41" r="1" fill="#F57F26"/>
<circle cx="49" cy="41" r="1" fill="#F57F26"/>
<circle cx="61" cy="41" r="1" fill="#F57F26"/>
<circle cx="73" cy="41" r="1" fill="#F57F26"/>
<circle cx="85" cy="41" r="1" fill="#F57F26"/>
<circle cx="97" cy="41" r="1" fill="#F57F26"/>
<circle cx="109" cy="41" r="1" fill="#F57F26"/>
<circle cx="121" cy="41" r="1" fill="#F57F26"/>
<circle cx="133" cy="41" r="1" fill="#F57F26"/>
<circle cx="145" cy="41" r="1" fill="#F57F26"/>
<circle cx="157" cy="41" r="1" fill="#F57F26"/>
<circle cx="169" cy="41" r="1" fill="#F57F26"/>
<circle cx="181" cy="41" r="1" fill="#F57F26"/>
<circle cx="193" cy="41" r="1" fill="#F57F26"/>
<circle cx="205" cy="41" r="1" fill="#F57F26"/>
<circle cx="1" cy="51" r="1" fill="#F57F26"/>
<circle cx="13" cy="51" r="1" fill="#F57F26"/>
<circle cx="25" cy="51" r="1" fill="#F57F26"/>
<circle cx="37" cy="51" r="1" fill="#F57F26"/>
<circle cx="49" cy="51" r="1" fill="#F57F26"/>
<circle cx="61" cy="51" r="1" fill="#F57F26"/>
<circle cx="73" cy="51" r="1" fill="#F57F26"/>
<circle cx="85" cy="51" r="1" fill="#F57F26"/>
<circle cx="97" cy="51" r="1" fill="#F57F26"/>
<circle cx="109" cy="51" r="1" fill="#F57F26"/>
<circle cx="121" cy="51" r="1" fill="#F57F26"/>
<circle cx="133" cy="51" r="1" fill="#F57F26"/>
<circle cx="145" cy="51" r="1" fill="#F57F26"/>
<circle cx="157" cy="51" r="1" fill="#F57F26"/>
<circle cx="169" cy="51" r="1" fill="#F57F26"/>
<circle cx="181" cy="51" r="1" fill="#F57F26"/>
<circle cx="193" cy="51" r="1" fill="#F57F26"/>
<circle cx="205" cy="51" r="1" fill="#F57F26"/>
<circle cx="1" cy="61" r="1" fill="#F57F26"/>
<circle cx="13" cy="61" r="1" fill="#F57F26"/>
<circle cx="25" cy="61" r="1" fill="#F57F26"/>
<circle cx="37" cy="61" r="1" fill="#F57F26"/>
<circle cx="49" cy="61" r="1" fill="#F57F26"/>
<circle cx="61" cy="61" r="1" fill="#F57F26"/>
<circle cx="73" cy="61" r="1" fill="#F57F26"/>
<circle cx="85" cy="61" r="1" fill="#F57F26"/>
<circle cx="97" cy="61" r="1" fill="#F57F26"/>
<circle cx="109" cy="61" r="1" fill="#F57F26"/>
<circle cx="121" cy="61" r="1" fill="#F57F26"/>
<circle cx="133" cy="61" r="1" fill="#F57F26"/>
<circle cx="145" cy="61" r="1" fill="#F57F26"/>
<circle cx="157" cy="61" r="1" fill="#F57F26"/>
<circle cx="169" cy="61" r="1" fill="#F57F26"/>
<circle cx="181" cy="61" r="1" fill="#F57F26"/>
<circle cx="193" cy="61" r="1" fill="#F57F26"/>
<circle cx="205" cy="61" r="1" fill="#F57F26"/>
<circle cx="1" cy="71" r="1" fill="#F57F26"/>
<circle cx="13" cy="71" r="1" fill="#F57F26"/>
<circle cx="25" cy="71" r="1" fill="#F57F26"/>
<circle cx="37" cy="71" r="1" fill="#F57F26"/>
<circle cx="49" cy="71" r="1" fill="#F57F26"/>
<circle cx="61" cy="71" r="1" fill="#F57F26"/>
<circle cx="73" cy="71" r="1" fill="#F57F26"/>
<circle cx="85" cy="71" r="1" fill="#F57F26"/>
<circle cx="97" cy="71" r="1" fill="#F57F26"/>
<circle cx="109" cy="71" r="1" fill="#F57F26"/>
<circle cx="121" cy="71" r="1" fill="#F57F26"/>
<circle cx="133" cy="71" r="1" fill="#F57F26"/>
<circle cx="145" cy="71" r="1" fill="#F57F26"/>
<circle cx="157" cy="71" r="1" fill="#F57F26"/>
<circle cx="169" cy="71" r="1" fill="#F57F26"/>
<circle cx="181" cy="71" r="1" fill="#F57F26"/>
<circle cx="193" cy="71" r="1" fill="#F57F26"/>
<circle cx="205" cy="71" r="1" fill="#F57F26"/>
<circle cx="1" cy="81" r="1" fill="#F57F26"/>
<circle cx="13" cy="81" r="1" fill="#F57F26"/>
<circle cx="25" cy="81" r="1" fill="#F57F26"/>
<circle cx="37" cy="81" r="1" fill="#F57F26"/>
<circle cx="49" cy="81" r="1" fill="#F57F26"/>
<circle cx="61" cy="81" r="1" fill="#F57F26"/>
<circle cx="73" cy="81" r="1" fill="#F57F26"/>
<circle cx="85" cy="81" r="1" fill="#F57F26"/>
<circle cx="97" cy="81" r="1" fill="#F57F26"/>
<circle cx="109" cy="81" r="1" fill="#F57F26"/>
<circle cx="121" cy="81" r="1" fill="#F57F26"/>
<circle cx="133" cy="81" r="1" fill="#F57F26"/>
<circle cx="145" cy="81" r="1" fill="#F57F26"/>
<circle cx="157" cy="81" r="1" fill="#F57F26"/>
<circle cx="169" cy="81" r="1" fill="#F57F26"/>
<circle cx="181" cy="81" r="1" fill="#F57F26"/>
<circle cx="193" cy="81" r="1" fill="#F57F26"/>
<circle cx="205" cy="81" r="1" fill="#F57F26"/>
<circle cx="1" cy="91" r="1" fill="#F57F26"/>
<circle cx="13" cy="91" r="1" fill="#F57F26"/>
<circle cx="25" cy="91" r="1" fill="#F57F26"/>
<circle cx="37" cy="91" r="1" fill="#F57F26"/>
<circle cx="49" cy="91" r="1" fill="#F57F26"/>
<circle cx="61" cy="91" r="1" fill="#F57F26"/>
<circle cx="73" cy="91" r="1" fill="#F57F26"/>
<circle cx="85" cy="91" r="1" fill="#F57F26"/>
<circle cx="97" cy="91" r="1" fill="#F57F26"/>
<circle cx="109" cy="91" r="1" fill="#F57F26"/>
<circle cx="121" cy="91" r="1" fill="#F57F26"/>
<circle cx="133" cy="91" r="1" fill="#F57F26"/>
<circle cx="145" cy="91" r="1" fill="#F57F26"/>
<circle cx="157" cy="91" r="1" fill="#F57F26"/>
<circle cx="169" cy="91" r="1" fill="#F57F26"/>
<circle cx="181" cy="91" r="1" fill="#F57F26"/>
<circle cx="193" cy="91" r="1" fill="#F57F26"/>
<circle cx="205" cy="91" r="1" fill="#F57F26"/>
<circle cx="1" cy="101" r="1" fill="#F57F26"/>
<circle cx="13" cy="101" r="1" fill="#F57F26"/>
<circle cx="25" cy="101" r="1" fill="#F57F26"/>
<circle cx="37" cy="101" r="1" fill="#F57F26"/>
<circle cx="49" cy="101" r="1" fill="#F57F26"/>
<circle cx="61" cy="101" r="1" fill="#F57F26"/>
<circle cx="73" cy="101" r="1" fill="#F57F26"/>
<circle cx="85" cy="101" r="1" fill="#F57F26"/>
<circle cx="97" cy="101" r="1" fill="#F57F26"/>
<circle cx="109" cy="101" r="1" fill="#F57F26"/>
<circle cx="121" cy="101" r="1" fill="#F57F26"/>
<circle cx="133" cy="101" r="1" fill="#F57F26"/>
<circle cx="145" cy="101" r="1" fill="#F57F26"/>
<circle cx="157" cy="101" r="1" fill="#F57F26"/>
<circle cx="169" cy="101" r="1" fill="#F57F26"/>
<circle cx="181" cy="101" r="1" fill="#F57F26"/>
<circle cx="193" cy="101" r="1" fill="#F57F26"/>
<circle cx="205" cy="101" r="1" fill="#F57F26"/>
<circle cx="1" cy="111" r="1" fill="#F57F26"/>
<circle cx="13" cy="111" r="1" fill="#F57F26"/>
<circle cx="25" cy="111" r="1" fill="#F57F26"/>
<circle cx="37" cy="111" r="1" fill="#F57F26"/>
<circle cx="49" cy="111" r="1" fill="#F57F26"/>
<circle cx="61" cy="111" r="1" fill="#F57F26"/>
<circle cx="73" cy="111" r="1" fill="#F57F26"/>
<circle cx="85" cy="111" r="1" fill="#F57F26"/>
<circle cx="97" cy="111" r="1" fill="#F57F26"/>
<circle cx="109" cy="111" r="1" fill="#F57F26"/>
<circle cx="121" cy="111" r="1" fill="#F57F26"/>
<circle cx="133" cy="111" r="1" fill="#F57F26"/>
<circle cx="145" cy="111" r="1" fill="#F57F26"/>
<circle cx="157" cy="111" r="1" fill="#F57F26"/>
<circle cx="169" cy="111" r="1" fill="#F57F26"/>
<circle cx="181" cy="111" r="1" fill="#F57F26"/>
<circle cx="193" cy="111" r="1" fill="#F57F26"/>
<circle cx="205" cy="111" r="1" fill="#F57F26"/>
<circle cx="1" cy="121" r="1" fill="#F57F26"/>
<circle cx="13" cy="121" r="1" fill="#F57F26"/>
<circle cx="25" cy="121" r="1" fill="#F57F26"/>
<circle cx="37" cy="121" r="1" fill="#F57F26"/>
<circle cx="49" cy="121" r="1" fill="#F57F26"/>
<circle cx="61" cy="121" r="1" fill="#F57F26"/>
<circle cx="73" cy="121" r="1" fill="#F57F26"/>
<circle cx="85" cy="121" r="1" fill="#F57F26"/>
<circle cx="97" cy="121" r="1" fill="#F57F26"/>
<circle cx="109" cy="121" r="1" fill="#F57F26"/>
<circle cx="121" cy="121" r="1" fill="#F57F26"/>
<circle cx="133" cy="121" r="1" fill="#F57F26"/>
<circle cx="145" cy="121" r="1" fill="#F57F26"/>
<circle cx="157" cy="121" r="1" fill="#F57F26"/>
<circle cx="169" cy="121" r="1" fill="#F57F26"/>
<circle cx="181" cy="121" r="1" fill="#F57F26"/>
<circle cx="193" cy="121" r="1" fill="#F57F26"/>
<circle cx="205" cy="121" r="1" fill="#F57F26"/>
<circle cx="1" cy="131" r="1" fill="#F57F26"/>
<circle cx="13" cy="131" r="1" fill="#F57F26"/>
<circle cx="25" cy="131" r="1" fill="#F57F26"/>
<circle cx="37" cy="131" r="1" fill="#F57F26"/>
<circle cx="49" cy="131" r="1" fill="#F57F26"/>
<circle cx="61" cy="131" r="1" fill="#F57F26"/>
<circle cx="73" cy="131" r="1" fill="#F57F26"/>
<circle cx="85" cy="131" r="1" fill="#F57F26"/>
<circle cx="97" cy="131" r="1" fill="#F57F26"/>
<circle cx="109" cy="131" r="1" fill="#F57F26"/>
<circle cx="121" cy="131" r="1" fill="#F57F26"/>
<circle cx="133" cy="131" r="1" fill="#F57F26"/>
<circle cx="145" cy="131" r="1" fill="#F57F26"/>
<circle cx="157" cy="131" r="1" fill="#F57F26"/>
<circle cx="169" cy="131" r="1" fill="#F57F26"/>
<circle cx="181" cy="131" r="1" fill="#F57F26"/>
<circle cx="193" cy="131" r="1" fill="#F57F26"/>
<circle cx="205" cy="131" r="1" fill="#F57F26"/>
<circle cx="1" cy="141" r="1" fill="#F57F26"/>
<circle cx="13" cy="141" r="1" fill="#F57F26"/>
<circle cx="25" cy="141" r="1" fill="#F57F26"/>
<circle cx="37" cy="141" r="1" fill="#F57F26"/>
<circle cx="49" cy="141" r="1" fill="#F57F26"/>
<circle cx="61" cy="141" r="1" fill="#F57F26"/>
<circle cx="73" cy="141" r="1" fill="#F57F26"/>
<circle cx="85" cy="141" r="1" fill="#F57F26"/>
<circle cx="97" cy="141" r="1" fill="#F57F26"/>
<circle cx="109" cy="141" r="1" fill="#F57F26"/>
<circle cx="121" cy="141" r="1" fill="#F57F26"/>
<circle cx="133" cy="141" r="1" fill="#F57F26"/>
<circle cx="145" cy="141" r="1" fill="#F57F26"/>
<circle cx="157" cy="141" r="1" fill="#F57F26"/>
<circle cx="169" cy="141" r="1" fill="#F57F26"/>
<circle cx="181" cy="141" r="1" fill="#F57F26"/>
<circle cx="193" cy="141" r="1" fill="#F57F26"/>
<circle cx="205" cy="141" r="1" fill="#F57F26"/>
<circle cx="1" cy="151" r="1" fill="#F57F26"/>
<circle cx="13" cy="151" r="1" fill="#F57F26"/>
<circle cx="25" cy="151" r="1" fill="#F57F26"/>
<circle cx="37" cy="151" r="1" fill="#F57F26"/>
<circle cx="49" cy="151" r="1" fill="#F57F26"/>
<circle cx="61" cy="151" r="1" fill="#F57F26"/>
<circle cx="73" cy="151" r="1" fill="#F57F26"/>
<circle cx="85" cy="151" r="1" fill="#F57F26"/>
<circle cx="97" cy="151" r="1" fill="#F57F26"/>
<circle cx="109" cy="151" r="1" fill="#F57F26"/>
<circle cx="121" cy="151" r="1" fill="#F57F26"/>
<circle cx="133" cy="151" r="1" fill="#F57F26"/>
<circle cx="145" cy="151" r="1" fill="#F57F26"/>
<circle cx="157" cy="151" r="1" fill="#F57F26"/>
<circle cx="169" cy="151" r="1" fill="#F57F26"/>
<circle cx="181" cy="151" r="1" fill="#F57F26"/>
<circle cx="193" cy="151" r="1" fill="#F57F26"/>
<circle cx="205" cy="151" r="1" fill="#F57F26"/>
<circle cx="1" cy="161" r="1" fill="#F57F26"/>
<circle cx="13" cy="161" r="1" fill="#F57F26"/>
<circle cx="25" cy="161" r="1" fill="#F57F26"/>
<circle cx="37" cy="161" r="1" fill="#F57F26"/>
<circle cx="49" cy="161" r="1" fill="#F57F26"/>
<circle cx="61" cy="161" r="1" fill="#F57F26"/>
<circle cx="73" cy="161" r="1" fill="#F57F26"/>
<circle cx="85" cy="161" r="1" fill="#F57F26"/>
<circle cx="97" cy="161" r="1" fill="#F57F26"/>
<circle cx="109" cy="161" r="1" fill="#F57F26"/>
<circle cx="121" cy="161" r="1" fill="#F57F26"/>
<circle cx="133" cy="161" r="1" fill="#F57F26"/>
<circle cx="145" cy="161" r="1" fill="#F57F26"/>
<circle cx="157" cy="161" r="1" fill="#F57F26"/>
<circle cx="169" cy="161" r="1" fill="#F57F26"/>
<circle cx="181" cy="161" r="1" fill="#F57F26"/>
<circle cx="193" cy="161" r="1" fill="#F57F26"/>
<circle cx="205" cy="161" r="1" fill="#F57F26"/>
<circle cx="1" cy="171" r="1" fill="#F57F26"/>
<circle cx="13" cy="171" r="1" fill="#F57F26"/>
<circle cx="25" cy="171" r="1" fill="#F57F26"/>
<circle cx="37" cy="171" r="1" fill="#F57F26"/>
<circle cx="49" cy="171" r="1" fill="#F57F26"/>
<circle cx="61" cy="171" r="1" fill="#F57F26"/>
<circle cx="73" cy="171" r="1" fill="#F57F26"/>
<circle cx="85" cy="171" r="1" fill="#F57F26"/>
<circle cx="97" cy="171" r="1" fill="#F57F26"/>
<circle cx="109" cy="171" r="1" fill="#F57F26"/>
<circle cx="121" cy="171" r="1" fill="#F57F26"/>
<circle cx="133" cy="171" r="1" fill="#F57F26"/>
<circle cx="145" cy="171" r="1" fill="#F57F26"/>
<circle cx="157" cy="171" r="1" fill="#F57F26"/>
<circle cx="169" cy="171" r="1" fill="#F57F26"/>
<circle cx="181" cy="171" r="1" fill="#F57F26"/>
<circle cx="193" cy="171" r="1" fill="#F57F26"/>
<circle cx="205" cy="171" r="1" fill="#F57F26"/>
<circle cx="1" cy="181" r="1" fill="#F57F26"/>
<circle cx="13" cy="181" r="1" fill="#F57F26"/>
<circle cx="25" cy="181" r="1" fill="#F57F26"/>
<circle cx="37" cy="181" r="1" fill="#F57F26"/>
<circle cx="49" cy="181" r="1" fill="#F57F26"/>
<circle cx="61" cy="181" r="1" fill="#F57F26"/>
<circle cx="73" cy="181" r="1" fill="#F57F26"/>
<circle cx="85" cy="181" r="1" fill="#F57F26"/>
<circle cx="97" cy="181" r="1" fill="#F57F26"/>
<circle cx="109" cy="181" r="1" fill="#F57F26"/>
<circle cx="121" cy="181" r="1" fill="#F57F26"/>
<circle cx="133" cy="181" r="1" fill="#F57F26"/>
<circle cx="145" cy="181" r="1" fill="#F57F26"/>
<circle cx="157" cy="181" r="1" fill="#F57F26"/>
<circle cx="169" cy="181" r="1" fill="#F57F26"/>
<circle cx="181" cy="181" r="1" fill="#F57F26"/>
<circle cx="193" cy="181" r="1" fill="#F57F26"/>
<circle cx="205" cy="181" r="1" fill="#F57F26"/>
<circle cx="1" cy="191" r="1" fill="#F57F26"/>
<circle cx="13" cy="191" r="1" fill="#F57F26"/>
<circle cx="25" cy="191" r="1" fill="#F57F26"/>
<circle cx="37" cy="191" r="1" fill="#F57F26"/>
<circle cx="49" cy="191" r="1" fill="#F57F26"/>
<circle cx="61" cy="191" r="1" fill="#F57F26"/>
<circle cx="73" cy="191" r="1" fill="#F57F26"/>
<circle cx="85" cy="191" r="1" fill="#F57F26"/>
<circle cx="97" cy="191" r="1" fill="#F57F26"/>
<circle cx="109" cy="191" r="1" fill="#F57F26"/>
<circle cx="121" cy="191" r="1" fill="#F57F26"/>
<circle cx="133" cy="191" r="1" fill="#F57F26"/>
<circle cx="145" cy="191" r="1" fill="#F57F26"/>
<circle cx="157" cy="191" r="1" fill="#F57F26"/>
<circle cx="169" cy="191" r="1" fill="#F57F26"/>
<circle cx="181" cy="191" r="1" fill="#F57F26"/>
<circle cx="193" cy="191" r="1" fill="#F57F26"/>
<circle cx="205" cy="191" r="1" fill="#F57F26"/>
<circle cx="1" cy="201" r="1" fill="#F57F26"/>
<circle cx="13" cy="201" r="1" fill="#F57F26"/>
<circle cx="25" cy="201" r="1" fill="#F57F26"/>
<circle cx="37" cy="201" r="1" fill="#F57F26"/>
<circle cx="49" cy="201" r="1" fill="#F57F26"/>
<circle cx="61" cy="201" r="1" fill="#F57F26"/>
<circle cx="73" cy="201" r="1" fill="#F57F26"/>
<circle cx="85" cy="201" r="1" fill="#F57F26"/>
<circle cx="97" cy="201" r="1" fill="#F57F26"/>
<circle cx="109" cy="201" r="1" fill="#F57F26"/>
<circle cx="121" cy="201" r="1" fill="#F57F26"/>
<circle cx="133" cy="201" r="1" fill="#F57F26"/>
<circle cx="145" cy="201" r="1" fill="#F57F26"/>
<circle cx="157" cy="201" r="1" fill="#F57F26"/>
<circle cx="169" cy="201" r="1" fill="#F57F26"/>
<circle cx="181" cy="201" r="1" fill="#F57F26"/>
<circle cx="193" cy="201" r="1" fill="#F57F26"/>
<circle cx="205" cy="201" r="1" fill="#F57F26"/>
<circle cx="1" cy="211" r="1" fill="#F57F26"/>
<circle cx="13" cy="211" r="1" fill="#F57F26"/>
<circle cx="25" cy="211" r="1" fill="#F57F26"/>
<circle cx="37" cy="211" r="1" fill="#F57F26"/>
<circle cx="49" cy="211" r="1" fill="#F57F26"/>
<circle cx="61" cy="211" r="1" fill="#F57F26"/>
<circle cx="73" cy="211" r="1" fill="#F57F26"/>
<circle cx="85" cy="211" r="1" fill="#F57F26"/>
<circle cx="97" cy="211" r="1" fill="#F57F26"/>
<circle cx="109" cy="211" r="1" fill="#F57F26"/>
<circle cx="121" cy="211" r="1" fill="#F57F26"/>
<circle cx="133" cy="211" r="1" fill="#F57F26"/>
<circle cx="145" cy="211" r="1" fill="#F57F26"/>
<circle cx="157" cy="211" r="1" fill="#F57F26"/>
<circle cx="169" cy="211" r="1" fill="#F57F26"/>
<circle cx="181" cy="211" r="1" fill="#F57F26"/>
<circle cx="193" cy="211" r="1" fill="#F57F26"/>
<circle cx="205" cy="211" r="1" fill="#F57F26"/>
<circle cx="1" cy="221" r="1" fill="#F57F26"/>
<circle cx="13" cy="221" r="1" fill="#F57F26"/>
<circle cx="25" cy="221" r="1" fill="#F57F26"/>
<circle cx="37" cy="221" r="1" fill="#F57F26"/>
<circle cx="49" cy="221" r="1" fill="#F57F26"/>
<circle cx="61" cy="221" r="1" fill="#F57F26"/>
<circle cx="73" cy="221" r="1" fill="#F57F26"/>
<circle cx="85" cy="221" r="1" fill="#F57F26"/>
<circle cx="97" cy="221" r="1" fill="#F57F26"/>
<circle cx="109" cy="221" r="1" fill="#F57F26"/>
<circle cx="121" cy="221" r="1" fill="#F57F26"/>
<circle cx="133" cy="221" r="1" fill="#F57F26"/>
<circle cx="145" cy="221" r="1" fill="#F57F26"/>
<circle cx="157" cy="221" r="1" fill="#F57F26"/>
<circle cx="169" cy="221" r="1" fill="#F57F26"/>
<circle cx="181" cy="221" r="1" fill="#F57F26"/>
<circle cx="193" cy="221" r="1" fill="#F57F26"/>
<circle cx="205" cy="221" r="1" fill="#F57F26"/>
</svg>
