<svg width="150" height="150" viewBox="0 0 150 150" fill="none" xmlns="http://www.w3.org/2000/svg">
<path d="M132.784 77.3326L132.918 75.5938L141.692 76.2724L141.557 78.0113L132.784 77.3326Z" fill="#F57F26"/>
<path d="M131.163 88.7694L131.641 87.0587L138.722 84.3022L132.866 82.6664L133.334 80.9865L141.81 83.3541L141.311 85.1418L134.406 87.8644L140.107 89.4571L139.639 91.1369L131.163 88.7694Z" fill="#F57F26"/>
<path d="M128.672 96.8592L129.451 95.2989L135.962 98.5548L137.12 96.2358L138.48 96.9156L135.378 103.128L134.018 102.448L135.183 100.115L128.672 96.8592Z" fill="#F57F26"/>
<path d="M123.607 106.392C124.468 105.319 125.505 104.716 126.72 104.583C127.942 104.456 129.069 104.807 130.1 105.636C131.132 106.464 131.714 107.485 131.847 108.7C131.988 109.922 131.628 111.07 130.767 112.143C129.913 113.208 128.875 113.804 127.652 113.93C126.438 114.063 125.315 113.716 124.284 112.887C123.253 112.059 122.666 111.034 122.525 109.812C122.392 108.597 122.753 107.457 123.607 106.392ZM124.804 107.354C124.271 108.02 124.065 108.737 124.187 109.505C124.31 110.289 124.713 110.954 125.395 111.502C126.086 112.056 126.822 112.306 127.605 112.25C128.381 112.203 129.036 111.847 129.57 111.181C130.11 110.507 130.323 109.782 130.208 109.005C130.086 108.237 129.679 107.575 128.989 107.021C128.299 106.467 127.566 106.213 126.789 106.26C126.007 106.315 125.345 106.68 124.804 107.354Z" fill="#F57F26"/>
<path d="M115.723 116.08C116.746 115.259 117.727 114.888 118.666 114.968C119.597 115.055 120.413 115.535 121.114 116.409L124.468 120.59L123.095 121.692L119.832 117.623C119.398 117.082 118.905 116.774 118.352 116.698C117.797 116.638 117.241 116.831 116.684 117.278C116.127 117.726 115.822 118.224 115.769 118.772C115.715 119.336 115.905 119.888 116.339 120.429L119.602 124.497L118.23 125.6L114.887 121.431C114.179 120.549 113.888 119.64 114.013 118.705C114.138 117.77 114.708 116.895 115.723 116.08Z" fill="#F57F26"/>
<path d="M102.858 125.554L104.651 124.632L107.869 126.558L109.221 125.863L107.767 123.03L109.318 122.233L113.337 130.062L109.637 131.963C108.812 132.388 108.04 132.484 107.322 132.254C106.595 132.028 106.049 131.559 105.683 130.848C105.342 130.183 105.25 129.547 105.405 128.94C105.561 128.332 105.894 127.849 106.406 127.49L102.858 125.554ZM107.937 128.232C107.539 128.437 107.284 128.699 107.173 129.02C107.058 129.356 107.087 129.694 107.263 130.036C107.438 130.377 107.693 130.594 108.028 130.686C108.363 130.777 108.725 130.723 109.114 130.523L111.092 129.507L109.915 127.215L107.937 128.232Z" fill="#F57F26"/>
<path d="M92.8527 139.314L90.7723 139.678L85.6793 131.636L87.6021 131.299L88.5478 132.807L92.614 132.095L92.9764 130.358L94.9149 130.019L92.8527 139.314ZM89.3139 134.216L91.5039 137.731L92.3714 133.68L89.3139 134.216Z" fill="#F57F26"/>
<path d="M78.0644 132.577C79.4282 132.64 80.5486 133.119 81.4255 134.014C82.2917 134.908 82.6935 136.032 82.6308 137.385C82.5676 138.749 82.0637 139.831 81.1191 140.631C80.1632 141.441 79.0034 141.814 77.6395 141.751C76.1371 141.681 74.9658 141.034 74.1255 139.81L75.5553 139.027C76.0763 139.767 76.795 140.158 77.7113 140.2C78.5744 140.24 79.3016 139.986 79.893 139.437C80.4839 138.898 80.7998 138.187 80.8407 137.302C80.8817 136.418 80.6334 135.67 80.0958 135.057C79.5577 134.456 78.8571 134.135 77.9941 134.095C77.2162 134.059 76.544 134.279 75.9774 134.754L75.9189 136.017L78.2684 136.126L78.201 137.58L74.1094 137.391L74.2656 134.018C75.317 132.988 76.5833 132.508 78.0644 132.577Z" fill="#F57F26"/>
<path d="M63.2134 131.33L69.4539 132.821L67.4127 141.381L61.1721 139.89L61.5247 138.412L66.0689 139.497L66.5403 137.52L62.0894 136.458L62.442 134.979L66.8929 136.042L67.405 133.894L62.8608 132.809L63.2134 131.33Z" fill="#F57F26"/>
<path d="M51.9604 127.691L53.5605 128.461L55.0336 135.919L57.6689 130.44L59.2401 131.197L55.4259 139.127L53.7538 138.322L52.2834 131.043L49.7175 136.378L48.1462 135.621L51.9604 127.691Z" fill="#F57F26"/>
<path d="M44.1508 123.424C45.2368 124.251 45.882 125.279 46.0865 126.508C46.2759 127.738 45.9637 128.888 45.1499 129.958C44.336 131.028 43.3143 131.63 42.0849 131.766C40.8405 131.904 39.6754 131.56 38.5894 130.732C37.3082 129.756 36.7491 128.465 36.9121 126.859L38.4935 127.159C38.4541 127.598 38.5235 128.027 38.7018 128.444C38.8736 128.87 39.1462 129.225 39.5195 129.51C40.1982 130.027 40.9369 130.228 41.7353 130.112C42.5338 129.996 43.2011 129.586 43.7372 128.882C44.2669 128.186 44.4845 127.433 44.3901 126.623C44.2892 125.822 43.8994 125.163 43.2207 124.646C42.8474 124.361 42.4317 124.186 41.9736 124.118C41.5091 124.059 41.0822 124.109 40.6929 124.269L39.9738 122.836C41.4689 122.245 42.8612 122.441 44.1508 123.424Z" fill="#F57F26"/>
<path d="M35.0259 116.41L36.1648 117.709L33.411 120.126L31.9341 126.233L30.6264 124.741L31.7351 120.447L27.3677 121.023L26.06 119.531L32.272 118.827L35.0259 116.41Z" fill="#F57F26"/>
<path d="M18.7975 101.29C18.9165 100.996 19.1136 100.791 19.3886 100.675C19.6637 100.558 19.948 100.559 20.2414 100.678C20.5251 100.802 20.7251 101.001 20.8414 101.276C20.9577 101.551 20.9612 101.833 20.8519 102.123C20.7328 102.416 20.5358 102.621 20.2607 102.738C19.9857 102.854 19.7014 102.853 19.4079 102.734C19.1144 102.615 18.9096 102.418 18.7933 102.143C18.677 101.868 18.6784 101.583 18.7975 101.29Z" fill="#F57F26"/>
<path d="M18.2343 82.9814L18.4088 84.7167L9.65299 85.598L9.47857 83.8627L18.2343 82.9814Z" fill="#F57F26"/>
<path d="M17.8322 71.0122L17.6544 72.7793L11.1486 76.7079L17.1981 77.3164L17.0235 79.0517L8.26772 78.171L8.45346 76.3243L14.7921 72.4592L8.90182 71.8668L9.07635 70.1315L17.8322 71.0122Z" fill="#F57F26"/>
<path d="M18.8425 62.8253L18.3485 64.4979L11.3674 62.4332L10.6332 64.9191L9.17557 64.488L11.1425 57.8284L12.6001 58.2595L11.8614 60.7607L18.8425 62.8253Z" fill="#F57F26"/>
<path d="M22.1124 52.6262C21.4525 53.8337 20.5365 54.6092 19.3642 54.9526C18.1826 55.2909 17.0116 55.1426 15.8513 54.5077C14.691 53.8728 13.939 52.9689 13.5954 51.796C13.2424 50.6179 13.3958 49.4252 14.0557 48.2177C14.7104 47.0196 15.6286 46.2513 16.8102 45.913C17.9824 45.5696 19.1487 45.7153 20.309 46.3502C21.4694 46.9852 22.226 47.8916 22.579 49.0697C22.9226 50.2426 22.7671 51.4281 22.1124 52.6262ZM20.7649 51.8889C21.1741 51.1401 21.2514 50.3981 20.9967 49.663C20.7378 48.9133 20.2247 48.3286 19.4574 47.9087C18.6807 47.4837 17.9119 47.367 17.1508 47.5585C16.3949 47.7407 15.8123 48.2062 15.4031 48.955C14.9888 49.7132 14.9064 50.4645 15.156 51.209C15.4106 51.9442 15.9263 52.5242 16.703 52.9492C17.4796 53.3742 18.2459 53.4956 19.0019 53.3135C19.7629 53.1219 20.3506 52.6471 20.7649 51.8889Z" fill="#F57F26"/>
<path d="M28.1545 41.7103C27.2898 42.697 26.3879 43.2324 25.4489 43.3166C24.5169 43.3928 23.63 43.0615 22.7882 42.3227L18.7596 38.7872L19.9197 37.4636L23.84 40.9042C24.3612 41.3615 24.9006 41.5795 25.4583 41.558C26.0151 41.5216 26.529 41.2346 27.0001 40.6972C27.4711 40.1597 27.6849 39.6164 27.6413 39.0673C27.5968 38.5031 27.314 37.9924 26.7929 37.535L22.8726 34.0945L24.0326 32.7709L28.0492 36.2959C28.899 37.0417 29.3434 37.8859 29.3825 38.8285C29.4216 39.7711 29.0123 40.7317 28.1545 41.7103Z" fill="#F57F26"/>
<path d="M39.2164 30.076L37.6084 31.292L34.1071 29.9478L32.8947 30.8646L34.8135 33.4055L33.4225 34.4574L28.1191 27.435L31.4372 24.9258C32.1774 24.3661 32.9209 24.1382 33.6677 24.2421C34.423 24.3396 35.0418 24.7075 35.5239 25.3459C35.9739 25.9417 36.1744 26.5524 36.1254 27.1778C36.0764 27.8033 35.8309 28.3366 35.3889 28.7779L39.2164 30.076ZM33.7525 28.3102C34.1099 28.04 34.3157 27.7373 34.3699 27.402C34.4263 27.0519 34.3387 26.7235 34.1073 26.4171C33.8759 26.1107 33.5874 25.941 33.2418 25.9082C32.8962 25.8753 32.5489 25.9908 32.2001 26.2546L30.4262 27.596L31.9787 29.6517L33.7525 28.3102Z" fill="#F57F26"/>
<path d="M46.5056 14.7978L48.4911 14.0777L54.9022 21.1135L53.0671 21.779L51.8742 20.4586L47.9935 21.866L47.938 23.6391L46.0879 24.3101L46.5056 14.7978ZM50.8753 19.204L48.1086 16.1226L47.9572 20.2623L50.8753 19.204Z" fill="#F57F26"/>
<path d="M61.9132 18.8616C60.5596 19.04 59.3723 18.7662 58.3515 18.0401C57.3412 17.3126 56.7477 16.2773 56.5708 14.9342C56.3926 13.5805 56.6979 12.4267 57.4868 11.4728C58.2849 10.5068 59.3607 9.93463 60.7143 9.75617C62.2054 9.55958 63.4724 9.98966 64.5153 11.0464L63.2459 12.0691C62.6027 11.4331 61.8264 11.175 60.9169 11.2949C60.0603 11.4078 59.3894 11.7868 58.9041 12.4317C58.4174 13.0661 58.2319 13.8222 58.3474 14.7C58.463 15.5777 58.8393 16.2705 59.4764 16.7782C60.1121 17.2754 60.8582 17.4675 61.7148 17.3546C62.4868 17.2528 63.1097 16.9178 63.5836 16.3497L63.4186 15.0965L61.0868 15.4039L60.8967 13.9604L64.9576 13.425L65.3983 16.7721C64.5448 17.9713 63.3832 18.6678 61.9132 18.8616Z" fill="#F57F26"/>
<path d="M77.3493 17.4309L70.9456 17.0348L71.4881 8.25157L77.8919 8.64765L77.7981 10.1648L73.1351 9.87634L73.0098 11.9045L77.5771 12.187L77.4833 13.7041L72.9161 13.4216L72.7799 15.6254L77.443 15.9138L77.3493 17.4309Z" fill="#F57F26"/>
<path d="M88.864 18.9968L87.1535 18.519L84.3954 11.4358L82.7616 17.2922L81.0819 16.823L83.4466 8.34665L85.2341 8.84599L87.9582 15.7536L89.5489 10.0513L91.2286 10.5205L88.864 18.9968Z" fill="#F57F26"/>
<path d="M97.4061 21.8299C96.1941 21.2012 95.3819 20.2993 94.9696 19.1241C94.5716 17.9444 94.6817 16.7578 95.2999 15.5644C95.9181 14.3711 96.8211 13.6018 98.009 13.2566C99.2112 12.9069 100.418 13.0464 101.63 13.675C103.06 14.4166 103.833 15.5924 103.948 17.2022L102.338 17.1784C102.302 16.7389 102.16 16.3288 101.912 15.9482C101.67 15.5581 101.34 15.255 100.924 15.0389C100.166 14.646 99.4042 14.5751 98.6375 14.8263C97.8707 15.0774 97.2837 15.5961 96.8765 16.3822C96.4742 17.1588 96.389 17.9378 96.621 18.719C96.8579 19.4908 97.3551 20.0731 98.1126 20.466C98.5292 20.6821 98.969 20.784 99.4318 20.7718C99.8995 20.75 100.312 20.6273 100.668 20.4035L101.622 21.6916C100.251 22.5303 98.8454 22.5764 97.4061 21.8299Z" fill="#F57F26"/>
<path d="M107.48 27.0427L106.133 25.9606L108.425 23.1024L108.819 16.8316L110.366 18.0739L110.02 22.4951L114.221 21.1697L115.768 22.412L109.773 24.1844L107.48 27.0427Z" fill="#F57F26"/>
<path d="M126.293 39.2924C126.227 39.6022 126.068 39.8382 125.817 40.0005C125.567 40.1627 125.286 40.2106 124.977 40.1442C124.676 40.0719 124.445 39.9104 124.283 39.6595C124.12 39.4087 124.068 39.1312 124.126 38.8272C124.192 38.5174 124.351 38.2814 124.602 38.1191C124.852 37.9568 125.132 37.9089 125.442 37.9754C125.752 38.0418 125.988 38.2005 126.15 38.4514C126.312 38.7022 126.36 38.9825 126.293 39.2924Z" fill="#F57F26"/>
</svg>
