<svg width="54" height="51" viewBox="0 0 54 51" fill="none" xmlns="http://www.w3.org/2000/svg">
<path fill-rule="evenodd" clip-rule="evenodd" d="M22.1145 28.944C22.1751 28.9557 22.2367 28.9616 22.2984 28.9616C22.5258 28.9616 22.7539 28.8813 22.9374 28.7178L31.5129 21.0741C31.834 20.7879 31.9275 20.323 31.7427 19.934C30.812 17.9773 31.2128 15.6326 32.74 14.0992L45.136 1.65096C45.5121 1.27311 45.5121 0.660895 45.136 0.283151C44.9008 0.047249 44.5746 -0.0412498 44.2712 0.017654C43.9677 -0.0412498 43.6415 0.047249 43.4064 0.283151L31.0106 12.7315C29.0825 14.6674 28.4582 17.5424 29.3548 20.0841L25.724 23.3203L22.2416 20.2164C24.1375 16.4703 23.4454 11.9219 20.4376 8.90132C17.4503 5.90146 13.9901 3.79036 10.6945 2.95713C9.58327 2.67623 8.52319 2.54664 7.53261 2.56477C5.29786 2.52451 3.39407 3.21343 2.02085 4.59234C0.104531 6.51662 -0.473697 9.47904 0.392492 12.9336C1.22233 16.2429 3.32448 19.7176 6.31199 22.7173C8.242 24.6556 10.7984 25.6363 13.3683 25.5873C14.8333 25.6152 16.3122 25.309 17.6911 24.6551L21.2103 28.6366C21.4006 28.8519 21.6651 28.9616 21.9309 28.9616C21.9924 28.9616 22.0539 28.9558 22.1145 28.944ZM7.54165 4.5005C8.266 4.51659 9.04133 4.62676 9.85667 4.83291C12.8198 5.58209 15.9633 7.51258 18.708 10.269C21.276 12.8478 21.7395 16.8146 19.8353 19.9154C19.5897 20.3153 19.6659 20.8345 20.0157 21.1464L24.0892 24.7772L22.217 26.4462L18.8731 22.6631C18.6416 22.4011 18.295 22.2918 17.9687 22.3556C17.7381 22.3107 17.4921 22.3503 17.2799 22.4819C16.0644 23.2346 14.7154 23.6189 13.3696 23.6509C11.4215 23.6045 9.50638 22.8212 8.04119 21.3497C5.29629 18.5934 3.37378 15.4369 2.62764 12.4613C1.93366 9.693 2.33235 7.38403 3.75037 5.96015C4.67704 5.02937 5.98028 4.53601 7.54165 4.5005ZM46.2973 3.09998C46.5323 2.86399 46.8585 2.77555 47.1619 2.83445C47.4654 2.77552 47.7917 2.86411 48.0268 3.09998C48.4028 3.47762 48.4028 4.08994 48.0268 4.46779L38.0409 14.4953C37.8528 14.6841 37.6062 14.7785 37.3598 14.7785C37.2983 14.7785 37.2367 14.7726 37.1761 14.7609C37.1154 14.7726 37.0539 14.7785 36.9924 14.7785C36.7458 14.7785 36.4994 14.6841 36.3113 14.4953C35.9352 14.1175 35.9352 13.5053 36.3114 13.1275L46.2973 3.09998ZM39.8918 17.445C39.9524 17.4568 40.014 17.4627 40.0755 17.4627C40.3219 17.4627 40.5685 17.3683 40.7566 17.1795L50.7423 7.15166C51.1185 6.77392 51.1185 6.16159 50.7423 5.78396C50.5072 5.54805 50.181 5.45955 49.8776 5.51846C49.5741 5.45955 49.2479 5.54805 49.0128 5.78396L39.0271 15.8117C38.651 16.1895 38.651 16.8018 39.027 17.1795C39.2151 17.3683 39.4617 17.4627 39.7081 17.4627C39.7696 17.4627 39.8312 17.4568 39.8918 17.445ZM36.1592 24.7813C35.4083 24.8009 34.6509 24.7003 33.917 24.4742L30.8772 27.9135L46.8404 42.1418C46.9479 42.234 47.0455 42.324 47.1376 42.4169C49.0897 44.3774 49.0897 47.5681 47.1371 49.5292C46.1606 50.5097 44.8779 51 43.5953 51C43.534 51 43.4728 50.9989 43.4115 50.9966C43.3503 50.9989 43.2891 51 43.2278 51C41.9453 51 40.6627 50.5098 39.6863 49.5293C39.5944 49.4373 39.5049 49.3394 39.413 49.2312L25.7241 33.7436L12.0354 49.231C11.9434 49.3391 11.8538 49.437 11.7613 49.5296C10.7855 50.5097 9.50268 50.9998 8.22042 50.9998C8.1591 50.9998 8.09778 50.9987 8.03649 50.9964C7.97534 50.9987 7.91417 50.9998 7.85299 50.9998C6.5702 50.9999 5.28773 50.5096 4.31114 49.5291C3.36513 48.5791 2.8442 47.316 2.8442 45.9726C2.8442 44.629 3.36523 43.366 4.31124 42.416C4.40196 42.3248 4.49927 42.2347 4.608 42.1416L15.9815 32.0042C16.2145 31.7963 16.52 31.7227 16.8041 31.7779C17.1272 31.7151 17.4742 31.8203 17.7085 32.0855C18.0615 32.4849 18.0254 33.0962 17.6275 33.4508L6.24649 43.5949C6.24125 43.5995 6.23601 43.6042 6.23056 43.6087C6.15944 43.6695 6.09763 43.7262 6.0417 43.7827C5.45844 44.3684 5.1378 45.1457 5.1378 45.9726C5.1378 46.7994 5.45844 47.5768 6.04065 48.1614C6.59478 48.718 7.30936 49.0179 8.03642 49.0611C8.76346 49.0179 9.4781 48.718 10.0324 48.1614C10.0898 48.1036 10.1465 48.0415 10.2065 47.9707L10.2203 47.9547L28.4249 27.3584L28.4272 27.3555L28.4295 27.3526L28.4324 27.3497L28.4347 27.3474L32.6467 22.5819C32.8766 22.3217 33.2223 22.2102 33.5508 22.2744C33.7484 22.2359 33.9581 22.2594 34.1495 22.3512C34.7922 22.6594 35.477 22.8221 36.1611 22.8468C37.4249 22.8013 38.6596 22.2866 39.5926 21.3496L51.9885 8.90143C52.2235 8.66543 52.5496 8.577 52.8531 8.63589C53.1566 8.57697 53.4829 8.66555 53.718 8.90143C54.0942 9.27917 54.0942 9.89139 53.718 10.2692L41.3219 22.7174C39.9297 24.1153 38.0496 24.8308 36.1592 24.7813ZM45.2017 43.595L45.2176 43.6088C45.2881 43.6691 45.35 43.726 45.4075 43.7836C46.6093 44.9906 46.6093 46.9544 45.4076 48.1612C44.8533 48.7177 44.1388 49.0176 43.4117 49.0608C42.6845 49.0176 41.9696 48.7176 41.4151 48.1607C41.3582 48.1035 41.3013 48.0413 41.2413 47.9705L41.2276 47.9545L27.1954 32.0787L29.4364 29.5432L45.2017 43.595Z" fill="#F57F26"/>
</svg>
